<svg height="16" width="16" xmlns="http://www.w3.org/2000/svg"><path d="M8 2a6 6 0 0 0-6 6 6 6 0 0 0 6 6 6 6 0 0 0 6-6 6 6 0 0 0-6-6Zm0 2a4 4 0 0 1 4 4 4 4 0 0 1-4 4 4 4 0 0 1-4-4 4 4 0 0 1 4-4Z" fill="#8eef97"/><path d="M10.32 9.906H9.125L8.815 9h-1.66l-.31.907H5.68l1.656-4.48h1.328ZM8.536 8.179l-.551-1.607-.55 1.607z" aria-label="A" style="font-weight:700;font-size:5.33333px;line-height:1.25;font-family:Verdana;-inkscape-font-specification:'Verdana Bold';letter-spacing:2px;fill:#8eef97;stroke:#8eef97;stroke-width:.231092"/></svg>