<svg height="16" width="16" xmlns="http://www.w3.org/2000/svg"><path d="M8 1.444a3.193 3.193 0 0 0-3.193 3.193A3.193 3.193 0 0 0 8 7.83a3.193 3.193 0 0 0 3.193-3.193A3.193 3.193 0 0 0 8 1.444Zm0 1.064a2.129 2.129 0 0 1 2.129 2.129A2.129 2.129 0 0 1 8 6.766a2.129 2.129 0 0 1-2.129-2.129A2.129 2.129 0 0 1 8 2.508Z" fill="#8eef97"/><path d="M10.008 9.939H8.974l-.268-.784H7.269L7 9.94H5.992l1.433-3.878h1.15zM8.464 8.444l-.477-1.39-.476 1.39Z" aria-label="A" style="font-weight:700;font-size:5.33333px;line-height:1.25;font-family:Verdana;-inkscape-font-specification:'Verdana Bold';letter-spacing:2px;fill:#8eef97;stroke:#8eef97;stroke-width:.2" transform="translate(3.743 .38) scale(.53217)"/><path d="M1.325 1.444a3.193 3.193 0 0 0-3.193 3.193A3.193 3.193 0 0 0 1.325 7.83a3.193 3.193 0 0 0 3.193-3.193 3.193 3.193 0 0 0-3.193-3.193Zm0 1.064a2.129 2.129 0 0 1 2.129 2.129 2.129 2.129 0 0 1-2.129 2.129A2.129 2.129 0 0 1-.804 4.637a2.129 2.129 0 0 1 2.13-2.129Z" fill="#8eef97"/><path d="M10.008 9.939H8.974l-.268-.784H7.269L7 9.94H5.992l1.433-3.878h1.15zM8.464 8.444l-.477-1.39-.476 1.39Z" aria-label="A" style="font-weight:700;font-size:5.33333px;line-height:1.25;font-family:Verdana;-inkscape-font-specification:'Verdana Bold';letter-spacing:2px;fill:#8eef97;stroke:#8eef97;stroke-width:.2" transform="translate(-2.932 .38) scale(.53217)"/><path d="M14.675 1.444a3.193 3.193 0 0 0-3.193 3.193 3.193 3.193 0 0 0 3.193 3.193 3.193 3.193 0 0 0 3.193-3.193 3.193 3.193 0 0 0-3.193-3.193Zm0 1.064a2.129 2.129 0 0 1 2.129 2.129 2.129 2.129 0 0 1-2.13 2.129 2.129 2.129 0 0 1-2.128-2.129 2.129 2.129 0 0 1 2.129-2.129Z" fill="#8eef97"/><path d="M10.008 9.939H8.974l-.268-.784H7.269L7 9.94H5.992l1.433-3.878h1.15zM8.464 8.444l-.477-1.39-.476 1.39Z" aria-label="A" style="font-weight:700;font-size:5.33333px;line-height:1.25;font-family:Verdana;-inkscape-font-specification:'Verdana Bold';letter-spacing:2px;fill:#8eef97;stroke:#8eef97;stroke-width:.2" transform="translate(10.418 .38) scale(.53217)"/><path d="M8 8.17a3.193 3.193 0 0 0-3.193 3.193A3.193 3.193 0 0 0 8 14.556a3.193 3.193 0 0 0 3.193-3.193A3.193 3.193 0 0 0 8 8.17Zm0 1.064a2.129 2.129 0 0 1 2.129 2.129A2.129 2.129 0 0 1 8 13.492a2.129 2.129 0 0 1-2.129-2.129A2.129 2.129 0 0 1 8 9.234Z" fill="#8eef97"/><path d="M10.008 9.939H8.974l-.268-.784H7.269L7 9.94H5.992l1.433-3.878h1.15zM8.464 8.444l-.477-1.39-.476 1.39Z" aria-label="A" style="font-weight:700;font-size:5.33333px;line-height:1.25;font-family:Verdana;-inkscape-font-specification:'Verdana Bold';letter-spacing:2px;fill:#8eef97;stroke:#8eef97;stroke-width:.2" transform="translate(3.743 7.106) scale(.53217)"/><path d="M1.325 8.17a3.193 3.193 0 0 0-3.193 3.193 3.193 3.193 0 0 0 3.193 3.193 3.193 3.193 0 0 0 3.193-3.193A3.193 3.193 0 0 0 1.325 8.17Zm0 1.064a2.129 2.129 0 0 1 2.129 2.129 2.129 2.129 0 0 1-2.129 2.129 2.129 2.129 0 0 1-2.129-2.129 2.129 2.129 0 0 1 2.13-2.129Z" fill="#8eef97"/><path d="M10.008 9.939H8.974l-.268-.784H7.269L7 9.94H5.992l1.433-3.878h1.15zM8.464 8.444l-.477-1.39-.476 1.39Z" aria-label="A" style="font-weight:700;font-size:5.33333px;line-height:1.25;font-family:Verdana;-inkscape-font-specification:'Verdana Bold';letter-spacing:2px;fill:#8eef97;stroke:#8eef97;stroke-width:.2" transform="translate(-2.932 7.106) scale(.53217)"/><path d="M14.675 8.17a3.193 3.193 0 0 0-3.193 3.193 3.193 3.193 0 0 0 3.193 3.193 3.193 3.193 0 0 0 3.193-3.193 3.193 3.193 0 0 0-3.193-3.193Zm0 1.064a2.129 2.129 0 0 1 2.129 2.129 2.129 2.129 0 0 1-2.13 2.129 2.129 2.129 0 0 1-2.128-2.129 2.129 2.129 0 0 1 2.129-2.129Z" fill="#8eef97"/><path d="M10.008 9.939H8.974l-.268-.784H7.269L7 9.94H5.992l1.433-3.878h1.15zM8.464 8.444l-.477-1.39-.476 1.39Z" aria-label="A" style="font-weight:700;font-size:5.33333px;line-height:1.25;font-family:Verdana;-inkscape-font-specification:'Verdana Bold';letter-spacing:2px;fill:#8eef97;stroke:#8eef97;stroke-width:.2" transform="translate(10.418 7.106) scale(.53217)"/></svg>