<svg height="16" width="16" xmlns="http://www.w3.org/2000/svg"><path d="M8 2a6 6 0 0 0-6 6 6 6 0 0 0 6 6 6 6 0 0 0 6-6 6 6 0 0 0-6-6Zm0 2a4 4 0 0 1 4 4 4 4 0 0 1-4 4 4 4 0 0 1-4-4 4 4 0 0 1 4-4Z" fill="#8eef97"/><path d="M10.008 9.939H8.974l-.268-.784H7.269L7 9.94H5.992l1.433-3.878h1.15zM8.464 8.444l-.477-1.39-.476 1.39Z" aria-label="A" style="font-weight:700;font-size:5.33333px;line-height:1.25;font-family:Verdana;-inkscape-font-specification:'Verdana Bold';letter-spacing:2px;fill:#8eef97;stroke:#8eef97;stroke-width:.2"/></svg>