<svg height="16" width="16" xmlns="http://www.w3.org/2000/svg"><path style="fill:#8eef97;fill-opacity:1;stroke-width:1.15168" d="M6.569 1.187c-.578 0-1.124.265-1.48.72l-3.452 4.41a2.652 2.652 0 0 0-.565 1.635v.096c0 .593.2 1.169.565 1.635l3.452 4.41c.356.455.902.72 1.48.72h7.444c.505 0 .915-.41.915-.915V2.102a.915.915 0 0 0-.915-.915zm2.751 1.92A4.892 4.892 0 0 1 14.213 8a4.892 4.892 0 0 1-4.893 4.892A4.892 4.892 0 0 1 4.428 8 4.892 4.892 0 0 1 9.32 3.108ZM2.716 6.974A1.028 1.028 0 0 1 3.744 8a1.028 1.028 0 0 1-1.028 1.027A1.028 1.028 0 0 1 1.69 8a1.028 1.028 0 0 1 1.027-1.027Z"/><path d="M12.18 10.204h-1.473l-.381-1.117H8.28l-.383 1.118H6.462l2.04-5.52h1.637Zm-2.2-2.129-.679-1.979-.677 1.98Z" aria-label="A" style="font-weight:700;font-size:5.33333px;line-height:1.25;font-family:Verdana;-inkscape-font-specification:'Verdana Bold';letter-spacing:2px;fill:#8eef97;stroke:#8eef97;stroke-width:.284719"/></svg>