<svg height="16" width="16" xmlns="http://www.w3.org/2000/svg"><path d="M5.633 11.65c-.659 0-1.19.53-1.19 1.19v1.19H2.857v1.586h9.519V14.03h-1.587v-1.19c0-.66-.53-1.19-1.19-1.19z" fill="#8eef97" style="stroke-width:.793212"/><path d="M8 .384a5.273 5.273 0 0 0-5.273 5.273A5.273 5.273 0 0 0 8 10.931a5.273 5.273 0 0 0 5.273-5.274A5.273 5.273 0 0 0 8 .384Zm0 1.758a3.516 3.516 0 0 1 3.516 3.515A3.516 3.516 0 0 1 8 9.173a3.516 3.516 0 0 1-3.516-3.516A3.516 3.516 0 0 1 8 2.142Z" fill="#8eef97" style="stroke-width:.878916"/><path d="M10.15 7.547H9.043l-.287-.84H7.217l-.288.84h-1.08l1.535-4.153h1.232zM8.497 5.945l-.51-1.488-.51 1.488Z" aria-label="A" style="font-weight:700;font-size:5.33333px;line-height:1.25;font-family:Verdana;-inkscape-font-specification:'Verdana Bold';letter-spacing:2px;fill:#8eef97;stroke:#8eef97;stroke-width:.214193"/></svg>