<svg height="16" width="16" xmlns="http://www.w3.org/2000/svg"><path d="M5.5 9.43c-.831 0-1.5.668-1.5 1.5v1.5H2v2h12v-2h-2v-1.5c0-.832-.669-1.5-1.5-1.5zM8 1.57a3.503 3.503 0 0 0-3.503 3.504A3.503 3.503 0 0 0 8 8.578a3.503 3.503 0 0 0 3.503-3.504A3.503 3.503 0 0 0 8 1.571zm0 1.17a2.336 2.336 0 0 1 2.336 2.335A2.336 2.336 0 0 1 8 7.41a2.336 2.336 0 0 1-2.336-2.336A2.336 2.336 0 0 1 8 2.74z" fill="#8eef97"/><path d="M10.008 4.255H8.974l-.268-.784H7.269L7 4.256H5.992L7.425.378h1.15zM8.464 2.76l-.477-1.39-.476 1.39z" aria-label="A" style="font-weight:700;font-size:5.33333px;line-height:1.25;font-family:Verdana;-inkscape-font-specification:'Verdana Bold';letter-spacing:2px;fill:#8eef97;stroke:#8eef97;stroke-width:.2" transform="translate(3.329 3.722) scale(.5839)"/></svg>